<svg id="Camada_1" data-name="Camada 1" xmlns="http://www.w3.org/2000/svg" viewBox="0 0 1920 1080"><defs><style>.cls-1{fill:#f1c59e;}</style></defs><title>starsPrancheta 1</title><path class="cls-1" d="M1527.36-67.5c-6.24,37.17,25.52,52.82,42.58,110,39,130.55-61.15,268.32-84.18,300-103.76,142.78-209.49,113.14-444.68,246C745.79,755.31,747.8,895.05,596.4,893.5c-193.46-2-264.68-230.86-452.6-199-107.91,18.3-174,109-187.18,127-65.77,90.19-99.89,235.67-52.49,322,102.14,186,522.41-12.67,1283.53,21,490.74,21.71,674.75,120.19,793.29-13,83.07-93.32,24.73-177.64,0-792-14.21-353.06-1.22-481.31-93.09-537C1769.21-249.42,1542.82-159.65,1527.36-67.5Z"/></svg>