<svg id="Camada_1" data-name="Camada 1" xmlns="http://www.w3.org/2000/svg" viewBox="0 0 334 60"><defs><style>.cls-1{fill:#255644;}</style></defs><title>starsPrancheta 1</title><path class="cls-1" d="M220.54,28.41,216,39.09h9.27ZM223,14.19h3.63l-2.81,6.69,14.8,33.35H232L226.8,42.5H214.59l-5.05,11.71h-3.63Zm85.33,8.4c6.37,0,10.18,5.37,10.18,14.34s-3.81,14.33-10.18,14.33-10.25-5.35-10.25-14.32S301.91,22.59,308.31,22.59Zm0-3.37c-9.22,0-16.7,8-16.7,17.75s7.51,17.74,16.7,17.74S325,46.76,325,37,317.51,19.22,308.31,19.22Zm-29.69.45h6.19V54.21h-6.19V19.67ZM249.85,23h6c5.2,0,7.42,2,7.42,6.64,0,4.47-2.27,6.46-7.37,6.46h-6ZM269.21,48l-1.79-5.24a8.88,8.88,0,0,0-3.84-4.59c3.22-1.44,6-4.15,6-8.47,0-6.25-5-10-13.36-10H243.65V54.23h6.2V39.53h5.4c4,0,5.24,1.58,6.33,4.71l1.74,5a17.22,17.22,0,0,0,1.95,4.3l.47.69h8.33l-2.95-2.78A8.4,8.4,0,0,1,269.21,48Zm-78.32,3.25a9.78,9.78,0,0,0,9.75-6.66l.6-1.68,3,1.49-.49,1.37c-2.08,5.66-6.86,8.92-13.12,8.92-9.41,0-16.51-7.6-16.51-17.68s7.25-17.74,16.51-17.74c6.23,0,11,3.28,13,9l.48,1.37-3,1.53-.6-1.7a9.74,9.74,0,0,0-9.66-6.73c-6.43,0-10.27,5.31-10.27,14.24S184.46,51.21,190.89,51.21ZM167.35,19.67h-6.19V54.21h6.19V19.67ZM136.53,23H124.31V19.67H155V23H142.68V54.21h-6.15V23ZM96,37c0,9,3.82,14.33,10.23,14.33v0c6.37,0,10.18-5.35,10.18-14.31S112.6,22.63,106.2,22.63,96,28,96,37ZM89.5,37c0-9.8,7.47-17.75,16.7-17.75s16.69,8,16.69,17.75-7.5,17.74-16.69,17.74S89.5,46.76,89.5,37Zm-75,0c0,9,3.82,14.33,10.22,14.33v0c6.38,0,10.19-5.35,10.19-14.31S31.1,22.63,24.69,22.63,14.47,28,14.47,37ZM8,37c0-9.8,7.47-17.75,16.69-17.75s16.7,8,16.7,17.75-7.5,17.74-16.7,17.74S8,46.76,8,37ZM56.53,51.15V35.07H67.45c3.45,0,9.25,1,9.25,8,0,5.68-2.51,8.1-8.4,8.1Zm11-19.49h-11V16.88H66.91c5.85,0,8.34,2.26,8.34,7.55,0,5.1-2.3,7.23-7.7,7.23Zm8.83,1.55c3.33-1.76,5.77-4.78,5.77-8.78,0-7-5.38-11-14.76-11H49.67V54.56H68.8c9.2,0,14.91-4.45,14.91-11.6C83.72,38.13,80.52,34.92,76.38,33.21Z"/></svg>